<svg width="171" height="57" viewBox="0 0 171 57" fill="none" xmlns="http://www.w3.org/2000/svg">
<path d="M11.25 45L0.99 13.365H7.02L14.625 37.71H12.6L20.07 13.365H24.615L32.085 37.71H30.015L37.665 13.365H43.695L33.39 45H28.845L21.33 20.7H23.31L15.84 45H11.25ZM47.2584 45V23.265H53.1984V45H47.2584ZM50.2284 19.755C49.2684 19.755 48.4734 19.44 47.8434 18.81C47.2134 18.15 46.8984 17.34 46.8984 16.38C46.8984 15.45 47.2134 14.655 47.8434 13.995C48.4734 13.335 49.2684 13.005 50.2284 13.005C51.2184 13.005 52.0134 13.335 52.6134 13.995C53.2434 14.655 53.5584 15.45 53.5584 16.38C53.5584 17.34 53.2434 18.15 52.6134 18.81C52.0134 19.44 51.2184 19.755 50.2284 19.755ZM58.4205 45V12.465H64.3155V45H58.4205ZM69.5387 45V12.465H75.4337V45H69.5387ZM80.6569 45V23.265H86.5969V45H80.6569ZM83.6269 19.755C82.6669 19.755 81.8719 19.44 81.2419 18.81C80.6119 18.15 80.2969 17.34 80.2969 16.38C80.2969 15.45 80.6119 14.655 81.2419 13.995C81.8719 13.335 82.6669 13.005 83.6269 13.005C84.6169 13.005 85.4119 13.335 86.0119 13.995C86.6419 14.655 86.9569 15.45 86.9569 16.38C86.9569 17.34 86.6419 18.15 86.0119 18.81C85.4119 19.44 84.6169 19.755 83.6269 19.755ZM100.909 45.45C98.929 45.45 97.144 44.955 95.554 43.965C93.964 42.975 92.719 41.625 91.819 39.915C90.919 38.205 90.469 36.285 90.469 34.155C90.469 31.995 90.919 30.06 91.819 28.35C92.719 26.64 93.964 25.29 95.554 24.3C97.144 23.31 98.929 22.815 100.909 22.815C102.469 22.815 103.864 23.13 105.094 23.76C106.324 24.39 107.299 25.275 108.019 26.415C108.769 27.525 109.174 28.785 109.234 30.195V38.025C109.174 39.465 108.769 40.74 108.019 41.85C107.299 42.96 106.324 43.845 105.094 44.505C103.864 45.135 102.469 45.45 100.909 45.45ZM101.989 40.005C103.639 40.005 104.974 39.465 105.994 38.385C107.014 37.275 107.524 35.85 107.524 34.11C107.524 32.97 107.284 31.965 106.804 31.095C106.354 30.195 105.709 29.505 104.869 29.025C104.059 28.515 103.099 28.26 101.989 28.26C100.909 28.26 99.949 28.515 99.109 29.025C98.299 29.505 97.654 30.195 97.174 31.095C96.724 31.965 96.499 32.97 96.499 34.11C96.499 35.28 96.724 36.315 97.174 37.215C97.654 38.085 98.299 38.775 99.109 39.285C99.949 39.765 100.909 40.005 101.989 40.005ZM107.209 45V39.15L108.154 33.84L107.209 28.62V23.265H113.059V45H107.209ZM118.274 45V23.265H124.169V45H118.274ZM132.449 45V32.175C132.449 30.915 132.044 29.94 131.234 29.25C130.454 28.53 129.479 28.17 128.309 28.17C127.529 28.17 126.824 28.335 126.194 28.665C125.564 28.965 125.069 29.415 124.709 30.015C124.349 30.615 124.169 31.335 124.169 32.175L121.874 31.05C121.874 29.37 122.234 27.915 122.954 26.685C123.704 25.455 124.709 24.51 125.969 23.85C127.229 23.16 128.654 22.815 130.244 22.815C131.744 22.815 133.109 23.16 134.339 23.85C135.569 24.51 136.544 25.455 137.264 26.685C137.984 27.885 138.344 29.34 138.344 31.05V45H132.449ZM146.624 45V32.175C146.624 30.915 146.219 29.94 145.409 29.25C144.629 28.53 143.654 28.17 142.484 28.17C141.734 28.17 141.029 28.335 140.369 28.665C139.739 28.965 139.244 29.415 138.884 30.015C138.524 30.615 138.344 31.335 138.344 32.175L134.969 31.365C135.089 29.625 135.554 28.125 136.364 26.865C137.174 25.575 138.239 24.585 139.559 23.895C140.879 23.175 142.349 22.815 143.969 22.815C145.589 22.815 147.044 23.16 148.334 23.85C149.624 24.51 150.644 25.47 151.394 26.73C152.144 27.99 152.519 29.49 152.519 31.23V45H146.624Z" fill="#1E1E1E"/>
<circle cx="166" cy="40" r="5" fill="#EC1552"/>
</svg>
